<?xml version="1.0" encoding="UTF-8"?>
<svg width="40px" height="40px" viewBox="0 0 40 40" version="1.1" xmlns="http://www.w3.org/2000/svg" xmlns:xlink="http://www.w3.org/1999/xlink">
    <title>LinkedIN</title>
    <g id="Page-1" stroke="none" stroke-width="1" fill="none" fill-rule="evenodd">
        <g id="Desktop-HD" transform="translate(-1027.000000, -3194.000000)" fill="#FFFFFF" fill-rule="nonzero">
            <g id="LinkedIN" transform="translate(1027.000000, 3194.000000)">
                <path d="M0,20 C0,8.95430447 8.95430447,0 20,0 C31.0456955,0 40,8.95430447 40,20 C40,31.0456955 31.0456955,40 20,40 C8.95430447,40 0,31.0456955 0,20 Z M14.133785,16.5648736 L9.6013476,16.5648736 L9.6013476,30.1829665 L14.133785,30.1829665 L14.133785,16.5648736 Z M14.4323027,12.3522481 C14.4028854,11.0170027 13.4480449,10 11.8975267,10 C10.3470084,10 9.33333333,11.0170027 9.33333333,12.3522481 C9.33333333,13.6598359 10.317048,14.7061231 11.8386921,14.7061231 L11.8676568,14.7061231 C13.4480449,14.7061231 14.4323027,13.6598359 14.4323027,12.3522481 Z M30.479488,22.3747682 C30.479488,18.1918791 28.2435013,16.2450944 25.2609485,16.2450944 C22.8545225,16.2450944 21.777125,17.5668725 21.1755637,18.4941237 L21.1755637,16.5652351 L16.6425833,16.5652351 C16.7023231,17.8430865 16.6425833,30.183328 16.6425833,30.183328 L21.1755637,30.183328 L21.1755637,22.5778614 C21.1755637,22.1708615 21.2049811,21.7648558 21.3248226,21.4734572 C21.6523956,20.6603612 22.3982375,19.818523 23.650419,19.818523 C25.2911805,19.818523 25.9470507,21.0672707 25.9470507,22.8972791 L25.9470507,30.1829665 L30.479307,30.1829665 L30.479488,22.3747682 Z" id="Combined-Shape"></path>
            </g>
        </g>
    </g>
</svg>