<?xml version="1.0" encoding="UTF-8"?>
<svg width="32px" height="32px" viewBox="0 0 32 32" version="1.1" xmlns="http://www.w3.org/2000/svg" xmlns:xlink="http://www.w3.org/1999/xlink">
    <title>streamline-icon-weather-cloud-sun-wind-2@140x140</title>
    <g id="Page-1" stroke="none" stroke-width="1" fill="none" fill-rule="evenodd" stroke-linecap="round" stroke-linejoin="round">
        <g id="Desktop-HD" transform="translate(-1163.000000, -52.000000)" stroke="#FFFFFF">
            <g id="streamline-icon-weather-cloud-sun-wind-2@140x140" transform="translate(1164.000000, 53.000000)">
                <line x1="2.42058824" y1="2.38423913" x2="3.41911765" y2="3.36956522" id="Path"></line>
                <line x1="15.9985294" y1="2.38423913" x2="15" y2="3.36956522" id="Path"></line>
                <path d="M4.92977941,11.8951087 C3.50491362,9.80628828 3.84976602,7.00370091 5.73993371,5.31105055 C7.63010141,3.61840019 10.4938374,3.54768784 12.4676471,5.14492754" id="Path"></path>
                <line x1="0.202205882" y1="7.80797101" x2="1.48897059" y2="7.80797101" id="Path"></line>
                <line x1="9.20955882" y1="0.199275362" x2="9.20955882" y2="1.4673913" id="Path"></line>
                <path d="M28.0220588,24.2934783 C29.148678,23.3413054 29.7972536,21.9517924 29.7977941,20.4891304 C29.7977941,18.8107971 28.9550008,17.2412212 27.5472426,16.2967391 C28.0975332,15.0440866 27.9246704,13.596899 27.0942603,12.5044218 C26.2638502,11.4119446 24.9031864,10.841644 23.5286765,11.0099638 C22.334314,7.99718829 19.1948214,6.18900086 15.9450879,6.64220404 C12.6953545,7.09540723 10.1882122,9.69106632 9.88897059,12.9121377 C7.83586094,13.1028052 6.00061637,14.2536933 4.95570514,16.0058052 C3.91079392,17.7579171 3.78339029,19.8980063 4.61323529,21.7585145" id="Path"></path>
                <line x1="0.202205882" y1="24.2934783" x2="23.3639706" y2="24.2934783" id="Path"></line>
                <line x1="4.0625" y1="26.8297101" x2="29.7977941" y2="26.8297101" id="Path"></line>
                <line x1="0.202205882" y1="29.365942" x2="23.3639706" y2="29.365942" id="Path"></line>
            </g>
        </g>
    </g>
</svg>